<?xml version="1.0" encoding="UTF-8"?>
<svg width="24px" height="24px" viewBox="0 0 24 24" version="1.1" xmlns="http://www.w3.org/2000/svg" xmlns:xlink="http://www.w3.org/1999/xlink">
    <!-- Generator: Sketch 64 (93537) - https://sketch.com -->
    <title>arrow-right-flat</title>
    <desc>Created with Sketch.</desc>
    <g id="arrow-right-flat" stroke="none" stroke-width="1" fill="none" fill-rule="evenodd">
        <path d="M13.1103804,5.7456943 L13.1871843,5.81281566 L18.4904852,11.1161165 C18.9481308,11.5737622 18.9767337,12.2979809 18.5762938,12.7889481 L18.4904852,12.8838835 L13.1871843,18.1871843 C12.8942911,18.4800776 12.4194174,18.4800776 12.1265242,18.1871843 C11.8580387,17.9186989 11.8356649,17.4972993 12.0594028,17.2033281 L12.1265242,17.1265242 L16.503,12.7491458 L6,12.75 C5.58578644,12.75 5.25,12.4142136 5.25,12 C5.25,11.6203042 5.53215388,11.306509 5.89822944,11.2568466 L6,11.25 L16.501,11.2491458 L12.1265242,6.87347584 C11.8580387,6.60499039 11.8356649,6.18359075 12.0594028,5.8896196 L12.1265242,5.81281566 C12.3950096,5.54433021 12.8164092,5.52195643 13.1103804,5.7456943 Z" id="Path" fill="#000000" fill-rule="nonzero"></path>
    </g>
</svg>