<?xml version="1.0" encoding="UTF-8"?>
<svg width="24px" height="24px" viewBox="0 0 24 24" version="1.1" xmlns="http://www.w3.org/2000/svg" xmlns:xlink="http://www.w3.org/1999/xlink">
    <!-- Generator: Sketch 64 (93537) - https://sketch.com -->
    <title>inst-flat</title>
    <desc>Created with Sketch.</desc>
    <g id="inst-flat" stroke="none" stroke-width="1" fill="none" fill-rule="evenodd">
        <path d="M12,4.75 C10.8024273,4.75 9.60485904,4.77727443 8.40730403,4.83182268 C6.47034128,4.92005072 4.92004958,6.47034245 4.83182157,8.4073052 L4.78656005,9.59917402 C4.76212201,10.403235 4.75,11.2016168 4.75,12 C4.75,13.1975727 4.77727443,14.395141 4.83182268,15.592696 C4.92005072,17.5296587 6.47034245,19.0799504 8.4073052,19.1681784 L9.59917402,19.21344 C10.403235,19.237878 11.2016168,19.25 12,19.25 C13.1975727,19.25 14.395141,19.2227256 15.592696,19.1681773 C17.5296587,19.0799493 19.0799504,17.5296576 19.1681784,15.5926948 L19.21344,14.400826 C19.237878,13.596765 19.25,12.7983832 19.25,12 C19.25,10.8024273 19.2227256,9.60485904 19.1681773,8.40730403 C19.0799493,6.47034128 17.5296576,4.92004958 15.5926948,4.83182157 L14.400826,4.78656005 C13.596765,4.76212201 12.7983832,4.75 12,4.75 Z M12,6.25 C12.7832026,6.25 13.5664064,6.26189156 14.3496143,6.2856748 L15.5301205,6.33050504 C16.6866189,6.38320472 17.6167941,7.31337992 17.669731,8.47555779 C17.7232439,9.65038217 17.75,10.8251933 17.75,12 C17.75,12.7832026 17.7381084,13.5664064 17.7143252,14.3496143 L17.669495,15.5301205 C17.6167953,16.6866189 16.6866201,17.6167941 15.5244422,17.669731 C14.3496178,17.7232439 13.1748067,17.75 12,17.75 C11.2167974,17.75 10.4335936,17.7381084 9.65038575,17.7143252 L8.46987945,17.669495 C7.31338106,17.6167953 6.38320585,16.6866201 6.33026902,15.5244422 C6.27675614,14.3496178 6.25,13.1748067 6.25,12 C6.25,11.2167974 6.26189156,10.4335936 6.2856748,9.65038575 L6.33050504,8.46987945 C6.38320472,7.31338106 7.31337992,6.38320585 8.47555779,6.33026902 C9.65038217,6.27675614 10.8251933,6.25 12,6.25 Z" id="Rectangle" fill="#000000" fill-rule="nonzero"></path>
        <path d="M12,8.25 C9.92893219,8.25 8.25,9.92893219 8.25,12 C8.25,14.0710678 9.92893219,15.75 12,15.75 C14.0710678,15.75 15.75,14.0710678 15.75,12 C15.75,9.92893219 14.0710678,8.25 12,8.25 Z M12,9.75 C13.2426407,9.75 14.25,10.7573593 14.25,12 C14.25,13.2426407 13.2426407,14.25 12,14.25 C10.7573593,14.25 9.75,13.2426407 9.75,12 C9.75,10.7573593 10.7573593,9.75 12,9.75 Z" id="Oval" fill="#000000" fill-rule="nonzero"></path>
        <circle id="Oval-Copy" fill="#000000" cx="15.75" cy="8.25" r="1"></circle>
    </g>
</svg>