<?xml version="1.0" encoding="UTF-8"?>
<svg width="24px" height="24px" viewBox="0 0 24 24" version="1.1" xmlns="http://www.w3.org/2000/svg" xmlns:xlink="http://www.w3.org/1999/xlink">
    <!-- Generator: Sketch 64 (93537) - https://sketch.com -->
    <title>mail-flat</title>
    <desc>Created with Sketch.</desc>
    <g id="mail-flat" stroke="none" stroke-width="1" fill="none" fill-rule="evenodd">
        <path d="M11.6156905,4.75090366 L12.385297,4.75090366 L13.2929605,4.75940821 C14.0789233,4.77022361 14.9388426,4.79035851 15.872831,4.8198042 L17.0291774,4.85960765 L17.5721259,4.8803953 C19.5192916,4.95721894 21.0831412,6.51260545 21.1705297,8.45932562 C21.2235097,9.63954054 21.25,10.8197682 21.25,12 C21.25,12.52455 21.2447673,13.0490994 21.234246,13.5753093 L21.2144906,14.3660772 L21.1705187,15.5406837 C21.0831306,17.4873904 19.5192918,19.0427661 17.5721396,19.1195893 L16.3838968,19.1634069 C15.2312217,19.2027571 14.1852289,19.228703 13.2457337,19.2412302 L12.78486,19.2463755 L12,19.25 C10.9916957,19.25 9.83017097,19.2306627 8.51476005,19.192003 L6.96996693,19.1403601 L6.42787409,19.1196047 C4.48070838,19.0427811 2.91685877,17.4873945 2.82947027,15.5406744 C2.77649028,14.3604595 2.75,13.1802318 2.75,12 C2.75,11.47545 2.7552327,10.9509006 2.76575401,10.4246907 L2.78550945,9.63392282 L2.8294813,8.45931626 C2.91686944,6.51260958 4.48070823,4.95723393 6.42786045,4.88041071 L7.50034626,4.84057777 C8.37009465,4.81039845 9.17989953,4.78775676 9.92999304,4.77265758 L10.3728856,4.76450321 L11.6156905,4.75090366 Z M16.9408874,11.8567275 C15.7158282,12.7469347 14.1983486,13.7372041 12.387179,14.8289215 C12.1525148,14.9703699 11.8593913,14.9725931 11.6226087,14.8347204 C10.0613179,13.9256199 8.54013115,12.9329313 7.05911258,11.8567275 C5.98035836,11.072835 5.05615245,10.3414863 4.28571571,9.66126562 L4.28464934,9.68440148 C4.26154974,10.4562706 4.25,11.2281359 4.25,12 C4.25,13.1577953 4.27598688,14.3155948 4.32796121,15.4734069 C4.37801112,16.5883496 5.23523591,17.4893519 6.32842253,17.6090181 L6.48613555,17.6207368 L7.5509277,17.6602748 L9.03751823,17.7060425 C9.51136666,17.7186044 9.96352742,17.7284728 10.3939828,17.7356491 L11.2259477,17.7464127 L12,17.7499979 L12.8637509,17.7455683 C13.7632537,17.7367084 14.7699916,17.7145562 15.8837799,17.6790958 L16.4495941,17.6602566 L17.5130043,17.6207554 C18.6281894,17.5767567 19.5338197,16.7244435 19.6592484,15.6360372 L19.6717977,15.4790063 L19.7153507,14.3155985 C19.7384503,13.5437294 19.75,12.7718641 19.75,12 L19.7413377,10.842203 L19.7413377,10.842203 L19.7141406,9.63938706 C18.8138651,10.4283134 17.889439,11.1674487 16.9408874,11.8567275 Z M12.0017676,6.24999792 L11.6209279,6.25089355 C10.8466261,6.25447579 9.98544404,6.26882737 9.03750674,6.29395769 L7.55054996,6.33973839 L6.48699565,6.3792446 C5.57300761,6.41530522 4.79978137,6.99432543 4.48147481,7.80128037 L4.52531641,7.83797409 L4.52531641,7.83797409 C5.36871302,8.6656459 6.50791871,9.60198481 7.94088742,10.6432725 C9.14109434,11.5154204 10.3680825,12.3309428 11.621889,13.0898817 L11.995,13.311 L12.0901146,13.2547262 C13.5000983,12.3938513 14.7129837,11.6023903 15.7280753,10.8811019 L16.0591126,10.6432725 C17.2411789,9.78430673 18.3851452,8.84405493 19.4910668,7.82237439 L19.5178711,7.80197112 C19.2189298,7.04390883 18.5212309,6.48843136 17.6832537,6.39229072 L17.5138645,6.37926315 L16.4484307,6.33970098 L14.8052531,6.28986221 C13.7633238,6.26328352 12.8285691,6.24999792 12.0017676,6.24999792 Z" id="Shape" fill="#000000" fill-rule="nonzero"></path>
    </g>
</svg>