<?xml version="1.0" encoding="UTF-8"?>
<svg width="24px" height="24px" viewBox="0 0 24 24" version="1.1" xmlns="http://www.w3.org/2000/svg" xmlns:xlink="http://www.w3.org/1999/xlink">
    <!-- Generator: Sketch 64 (93537) - https://sketch.com -->
    <title>phone-flat</title>
    <desc>Created with Sketch.</desc>
    <g id="phone-flat" stroke="none" stroke-width="1" fill="none" fill-rule="evenodd">
        <path d="M8.75656986,2.86426501 C9.54708128,2.40786303 10.5456648,2.6383094 11.0612779,3.37043987 L11.1471143,3.50480947 L12.6471143,6.10288568 C13.1035163,6.8933971 12.8730699,7.8919806 12.1409395,8.40759377 L12.0065699,8.49343014 L11.2194681,8.94786357 C10.6818632,9.25824988 10.4534877,9.91613611 10.6831628,10.4928671 C10.8615198,10.9407346 11.0697747,11.3708533 11.3080127,11.7834936 C11.546252,12.1961361 11.8146198,12.5915515 12.1133037,12.9699435 C12.4704565,13.4223996 13.0856861,13.5678208 13.6021879,13.3377756 L13.7194656,13.277992 L14.5065699,12.8235572 C15.2970813,12.3671552 16.2956648,12.5976015 16.8112779,13.329732 L16.8971143,13.4641016 L18.3971143,16.0621778 C18.8535163,16.8526892 18.6230699,17.8512727 17.8909395,18.3668859 L17.7565699,18.4527223 L16.0245191,19.4527223 C13.96864,20.6396846 11.3658553,20.2527591 9.7441542,18.5190937 C8.68079906,17.3823261 7.68708244,16.0118585 6.76137933,14.4084936 C5.83567622,12.8051288 5.14567477,11.2593112 4.69288299,9.77003575 C4.02535322,7.57447668 4.90606059,5.21420085 6.82258407,3.98710996 L7.02451905,3.86426501 L8.75656986,2.86426501 Z M9.84807621,4.25480947 C9.79054655,4.15516518 9.67477938,4.11010724 9.56859095,4.13780699 L9.50656986,4.16330312 L7.77451905,5.16330312 C6.32274596,6.0014847 5.64038324,7.72983165 6.12801854,9.33370337 C6.54589073,10.7081249 7.18952112,12.150057 8.06041744,13.6584936 C8.93131376,15.1669303 9.85824836,16.4452966 10.8395969,17.494396 C11.7486536,18.4662152 13.0942712,18.8387638 14.336718,18.5318064 L13.6584936,17.3546461 C13.4513869,16.9959266 13.5742932,16.5372338 13.9330127,16.330127 C14.2618389,16.1402791 14.6746704,16.227734 14.9007171,16.5199335 L14.9575318,16.6046461 L15.7065966,17.9035173 L17.0065699,17.1536842 C17.1062142,17.0961545 17.1512721,16.9803873 17.1235723,16.8741989 L17.0980762,16.8121778 L15.5980762,14.2141016 C15.5405465,14.1144573 15.4247794,14.0693994 15.3185909,14.0970991 L15.2565699,14.1225953 L14.4694656,14.5770301 C13.2867404,15.2598769 11.7820901,14.971298 10.935913,13.8993257 C10.5925224,13.4642963 10.283479,13.0089493 10.0089746,12.5334936 C9.73447156,12.0580404 9.4946522,11.5627302 9.28960172,11.0478333 C8.80628659,9.83419348 9.24495214,8.45717234 10.3190928,7.74214273 L10.4694785,7.64881946 L11.2565699,7.19439203 C11.3562142,7.13686237 11.4012721,7.02109521 11.3735723,6.91490677 L11.3480762,6.85288568 L9.84807621,4.25480947 Z" id="Shape" fill="#000000" fill-rule="nonzero"></path>
    </g>
</svg>