<?xml version="1.0" encoding="UTF-8"?>
<svg width="24px" height="24px" viewBox="0 0 24 24" version="1.1" xmlns="http://www.w3.org/2000/svg" xmlns:xlink="http://www.w3.org/1999/xlink">
    <!-- Generator: Sketch 64 (93537) - https://sketch.com -->
    <title>studio-flat</title>
    <desc>Created with Sketch.</desc>
    <g id="studio-flat" stroke="none" stroke-width="1" fill="none" fill-rule="evenodd">
        <path d="M12,3.25 C8.27207794,3.25 5.25,6.27207794 5.25,10 C5.25,12.9162817 7.3415677,16.4022279 11.4696699,20.5303301 C11.7625631,20.8232233 12.2374369,20.8232233 12.5303301,20.5303301 C16.6584323,16.4022279 18.75,12.9162817 18.75,10 C18.75,6.27207794 15.7279221,3.25 12,3.25 Z M12,4.75 C14.8994949,4.75 17.25,7.10050506 17.25,10 L17.2450459,10.2152493 C17.1459503,12.3875233 15.5597909,15.1526894 12.4487624,18.460949 L12,18.93 L11.8674248,18.7935834 C8.44051442,15.2262122 6.75,12.2748721 6.75,10 C6.75,7.10050506 9.10050506,4.75 12,4.75 Z" id="Oval" fill="#000000" fill-rule="nonzero"></path>
        <path d="M12,7.75 C10.7573593,7.75 9.75,8.75735931 9.75,10 C9.75,11.2426407 10.7573593,12.25 12,12.25 C13.2426407,12.25 14.25,11.2426407 14.25,10 C14.25,8.75735931 13.2426407,7.75 12,7.75 Z M12,9.25 C12.4142136,9.25 12.75,9.58578644 12.75,10 C12.75,10.4142136 12.4142136,10.75 12,10.75 C11.5857864,10.75 11.25,10.4142136 11.25,10 C11.25,9.58578644 11.5857864,9.25 12,9.25 Z" id="Oval" fill="#000000" fill-rule="nonzero"></path>
    </g>
</svg>